<svg xmlns="http://www.w3.org/2000/svg" xmlns:xlink="http://www.w3.org/1999/xlink" xml:space="preserve" width="90px" height="90px" version="1.1" style="shape-rendering:geometricPrecision; text-rendering:geometricPrecision; image-rendering:optimizeQuality; fill-rule:evenodd; clip-rule:evenodd" viewBox="0 0 13815471 13815471">
 <defs>
  <style type="text/css">
   
    .fil0 {fill:#1A1A1A;fill-rule:nonzero}
   
  </style>
 </defs>
 <g id="Layer_x0020_1">
  <metadata id="CorelCorpID_0Corel-Layer"/>
  <path class="fil0" d="M253102 0l13309267 0 253102 0 0 253102 0 13309267 0 253102 -253102 0 -13309267 0 -253102 0 0 -253102 0 -13309267 0 -253102 253102 0zm4567446 6654633l4174375 0 -2087187 -4174375 -2087188 4174375zm4427478 506205l-4680580 0 -2425323 4850463 -450725 -225362 4990975 -9981950 225363 -450726 225362 450726 4990975 9981950 -450725 225362 -2425322 -4850463zm4061241 -6654633l-12803062 0 0 12803062 12803062 0 0 -12803062z"/>
 </g>
</svg>